<?xml version="1.0" encoding="UTF-8"?>
<svg version="1.1" viewBox="0 0 1024 1024" width="1024" height="1024" xmlns="http://www.w3.org/2000/svg">
<path transform="translate(0)" d="m0 0h1024v1024h-1024z" fill="#1A1E1F"/>
<path transform="translate(516,122)" d="m0 0h2l3 37 3 16 2 20v10l24-1 6-22 3-8 5-18 7-23h1v11l-5 41-2 20 29-1 9-16 6-12 13-23 1 4-12 39-3 9h35l3 1 12-15 10-13 3-2-2 6-14 28 16 8 20 9 4-2 14-14 6-4-2 5-12 16-1 3 39 18 23 10v57l16-6 15-6 2 1-21 14-11 7-1 48 36-5 4-1h8l-1 2-37 13-10 2v38h22l15 1-2 2-31 7h-4l1 42 49 13v1l-44-2-6-1v346l-10 4-30 14-56 26-20 9-1 1h-254l-27-13-69-32-21-10-1-1v-343l-2 1-31 2h-19l3-2 30-8 17-5h2v-41l-22-4v-2l-19-2-1-2 42-1v-35l-14-6-20-7-15-5-4-3 13 1 37 5 3 1-1-47-36-23v-2l10 3 26 10 1-56 18-8 41-19h3l-3-5-14-19-3-5 4 2 7 7 8 7 7 7 6-1 26-12 6-3-8-16-11-21 2-1 9 12 10 13 6 8h39l-13-42-4-12 1-2 10 19 8 14 8 16 3 5v2h29l-3-25-2-21-2-18-1-4v-9l2 3 7 25 10 35 4 13 26 1 1-19z" fill="#1B1F20"/>
<path transform="translate(516,122)" d="m0 0h2l3 37 3 16 2 20v10l24-1 6-22 3-8 5-18 7-23h1v11l-5 41-2 20 29-1 9-16 6-12 13-23 1 4-12 39-3 9h35l3 1 12-15 10-13 3-2-2 6-14 28 16 8 20 9 4-2 14-14 6-4-2 5-12 16-1 3 39 18 23 10v57l16-6 15-6 2 1-21 14-11 7-1 48 36-5 4-1h8l-1 2-37 13-10 2v38h22l15 1-2 2-31 7h-4l1 42 49 13v1l-44-2-6-1v346l-10 4-30 14-56 26-20 9-1 1h-254l-27-13-69-32-21-10-1-1v-343l-2 1-31 2h-19l3-2 30-8 17-5h2v-41l-22-4v-2l-19-2-1-2 42-1v-35l-14-6-20-7-15-5-4-3 13 1 37 5 3 1-1-47-36-23v-2l10 3 26 10 1-56 18-8 41-19h3l-3-5-14-19-3-5 4 2 7 7 8 7 7 7 6-1 26-12 6-3-8-16-11-21 2-1 9 12 10 13 6 8h39l-13-42-4-12 1-2 10 19 8 14 8 16 3 5v2h29l-3-25-2-21-2-18-1-4v-9l2 3 7 25 10 35 4 13 26 1 1-19zm-118 98 15 20 13 17 16 21-1 4-16 9-4 1-2-6-30-60-4-1-29 13-1 2 8 7 15 14 17 16h2l1 3h2v2l8 7 6 6 1 3h-2v2l-4 2-5 4-5 5-3 2-2-4-6-9h-2l-2-5-7-9-9-12-11-15-9-12-2-3-5 1-30 14-22 10v53l8 4 34 13 33 13h2l-10 17-2 6-5-1-22-14-34-22-4-1v39l1 1 35 5 25 3v4l-3 10-2 2-1 9-51-17h-4v29h42l11-1-1 21v6l-39-8-13-1v31l8-1 27-7 13-4 5-1 1 17 2 9-24 1-32 2v179l14-3 28-7 41-8 18-41 8-18v-2l5 3 13 10-1 5-10 12-20 26-1 3 12-1 13-2 3-3 11-33v-2l17 11 6 4v16l-1 16-6 2-29 5-55 11-59 14-7 2v8h457v-8l-30-8-44-10-31-6-43-8-8-1v-10l-2-25 5-2 16-9 2-1 13 37 26 3-2-4-12-16-14-18-4-5 2-4 10-9 5-4 8 16 18 41 4 6 35 6 43 11h3v-180l-26-2-30-1 3-14 1-10 52 13v-34l-7 1-27 6-18 2v-13l-1-12 19 1h33l1-1v-29l-9 2-47 17-1-9-4-17 21-2 10-2 30-4v-40l-11 6-33 22-20 13-2-3-8-17-3-6 9-3 42-16 18-7 8-3v-54l-18-8-13-6-25-11-5 5-10 14-26 36-10 14-4-3h-2v-2l-11-9-2-3 32-30 7-7 8-7 7-7 2-1v-2h2l1-3-23-11-9-3-10 19-24 48-16-8-6-4 2-5 33-42 9-12v-1h-32l-16 53-1 5-11-5-12-4 2-5 11-23 10-19v-2h-23l-1 1-4 40v7l-20-3h-6l5-15 6-20 2-10h-18l3 45-5-1-20-1v-9l3-34h-21l5 18 7 25v1l-23 4-1-11-4-37h-23l2 6 8 17 12 24v3l-16 6h-5l-14-44-3-11-1-1z" fill="#F6BA04"/>
<path transform="translate(289,703)" d="m0 0h457v117l-49 23-33 15-26 12h-242l-34-16-61-28-12-6z" fill="#1C2021"/>
<path transform="translate(508,274)" d="m0 0h18l18 2 17 4 19 7 16 8 15 9 13 11 8 7 8 8 9 11 7 10 9 16 7 15 6 18 4 18 1 11v33l-3 20-5 20-1 2-8 1h-84l-1-1-2-31-2-44v-8l13-16 2-3v-63l-39-1v22h-14l-1-21-42-1v22h-15l-1-21-39-1 1 64 13 17 1 2-1 33-2 50-3 1h-88l-3-6-4-17-3-17v-38l5-26 3-12 9-20 8-16 11-14 12-14 14-13 13-10 17-10 15-7 23-7 15-3z" fill="#F6F8F3"/>
<path transform="translate(746,486)" d="m0 0h15l1 1v345l-10 4-30 14-56 26-20 9-1 1h-254l-27-13-69-32-21-10-1-1v-342l3-1h13v178l18-5 29-7 32-6h4l1-5 20-45 5-11 4 1 15 12-1 5-10 12-20 26-2 3 27-4 3-11 9-26 4 2 18 11 2 2v16l-1 16-7 3-29 5-55 11-59 14-7 1v8h457v-8l-10-2-41-10-43-9-54-10-8-2-2-23v-12l18-10 5-3 5 12 8 24v2h8l15 2 3 1-9-12-20-26-4-5 2-4 11-10 6-4 12 26 16 36 1 1 35 6 43 11 3 1zm-457 217v117l16 8 37 17 54 25h242l41-19 39-18 27-12 1-1v-117z" fill="#F6F8F3"/>
<path transform="translate(571,133)" d="m0 0h1v11l-5 41-2 20 29-1 9-16 6-12 13-23 1 4-12 39-3 9h35l3 1 12-15 10-13 3-2-2 6-14 28 16 8 20 9 4-2 14-14 6-4-2 5-12 16-1 3 39 18 23 10v57l16-6 15-6 2 1-21 14-11 7-1 48 36-5 4-1h8l-1 2-37 13-10 2v38h22l15 1-2 2-31 7h-4l1 42 49 13v1l-51-2-41-3-30-2 1-7 3-17 9 1 41 11 2 1v-34l-30 7-16 2h-6l-1-13v-12h52l1-29-37 13-16 6h-3l-5-22v-4l3-1 24-3 21-3 13-1-1-39-16 10-27 18-20 13-2-1-9-20-2-6 14-6 45-17 16-6h2v-54l-5-1-14-7-10-4-27-12-5 5-9 13-26 36-10 14h-3l-4-3v-2l-4-2-10-9 6-7 8-7 8-8 8-7 10-10 8-7 7-7h2v-2h2l-1-3-28-13h-2l-33 66-2 1-20-11-2-4 12-16 13-16 10-13 9-12-31-1-1 7-14 46-2 5-4-1-12-5-7-2v-4l12-25 11-21-23 1-5 47h-8l-18-3 1-5 8-27 4-13h-18l1 4 2 28v13h-5l-2-33-2-57 2-4 2 13 1 11v10l24-1 6-22 3-8 5-18z" fill="#F6BA04"/>
<path transform="translate(465,416)" d="m0 0h74l1 20 2 112 1 49 1 4v42l-2 2-9-1-1-42-3-5v-2l-4-2-3-1h-9l-7 4-4 8-1 40-10 1v-3h-2l-1 3-16 3-12 2h-6v-18l4-83 3-59 3-60z" fill="#5C6064"/>
<path transform="translate(465,416)" d="m0 0h28v32l-2 90-1 30-1 16-2 61-9 2-18 3h-6v-18l4-83 3-59 3-60z" fill="#B5BABA"/>
<path transform="translate(220,367)" d="m0 0 13 1 37 5 14 1 6 2 35 5 25 3 2 2-4 13-2 2-2 9-10-2-41-14-4-1v29l53-1v21l-1 6-9-1-36-7-7-1v31l19-5 23-6 6-2h5l3 26-24 2-48 3-33 2h-19l3-2 30-8 17-5h2v-41l-22-4v-2l-19-2-1-2 42-1v-35l-14-6-20-7-15-5z" fill="#F7BB04"/>
<path transform="translate(332,232)" d="m0 0 5 1 7 10-3 3-30 14-20 9h-2l1 53 46 18 28 11 2 1-2 5-7 12-3 7-5-1-22-14-34-22-3-1-1 37-14-1-2-1-1-46-36-23v-2l10 3 26 10 1-56 18-8z" fill="#F7BA04"/>
<path transform="translate(516,122)" d="m0 0h2l3 37 1 3v18l3 72v12h-20l-1-1v-9l3-31 1-3-20 1 5 17 7 25-1 2-17 3h-6l-3-20-2-21v-7h-2l-3-32-3-29-2-18-1-4v-9l2 3 7 25 10 35 4 13 26 1 1-19z" fill="#F7BB04"/>
<path transform="translate(693,421)" d="m0 0h53l53 3-2 2-31 7h-4l1 42 49 13v1l-51-2-41-3-30-2 1-7 3-17 9 1 41 11 2 1v-34l-30 7-16 2h-6l-1-13z" fill="#F9BC04"/>
<path transform="translate(760,328)" d="m0 0h2v46l36-5 4-1h8l-1 2-37 13-10 2v37h-16l-1-10 1-20-37 13-16 6h-3l-5-22v-4l3-1 24-3 21-3 13-1v-40l12-7z" fill="#F8BB04"/>
<path transform="translate(571,133)" d="m0 0h1v11l-5 41-2 20h28l-7 15-23 1-5 47h-8l-18-3 1-5 8-27 4-13h-18l1 4 2 28v13h-5l-2-33-2-57 2-4 2 13 1 11v10l24-1 6-22 3-8 5-18z" fill="#F8BB04"/>
<path transform="translate(409,149)" d="m0 0 3 3 8 16 8 14 8 16 3 5v2h29l1 6v9h-21l11 23 12 24-1 4-16 6h-5l-3-8-12-37-3-11-33-1-2-5h-2l-5-7 1-3h36l-13-42-4-12z" fill="#F7BB04"/>
<path transform="translate(793,304)" d="m0 0 2 1-21 14-11 7-5 5-8 5-12 6-36 24-20 13-2-1-9-20-2-6 14-6 45-17 18-7 12-5 9-3 16-6z" fill="#F8BB04"/>
<path transform="translate(220,367)" d="m0 0 13 1 37 5 14 1 6 2 35 5 25 3 2 2-4 13-2 2-2 9-10-2-41-14-14-3-5-2v-2l-5-1-17-6-8-3-17-6-7-3z" fill="#F7BB04"/>
<path transform="translate(698,232)" d="m0 0 6 1 35 16 23 10v57l-15 6h-1v-53l-5-1-14-7-10-4-26-12 1-5z" fill="#F5F7F2"/>
<path transform="translate(315,203)" d="m0 0 4 2 7 7 8 7 7 7 5 3 21 21 8 7 9 9 8 7 5 4 3 3v2l4 2 11 11v3h-2v2l-7 6h-2l-2 4-4 3h-2l-8-11v-2h-2l-12-17-10-13-8-11-9-12-1-3-3-1-8-11-3-5-14-19z" fill="#F6BA04"/>
<path transform="translate(622,153)" d="m0 0 1 4-12 39-2 9-3 11-4 11-14 46-2 5-4-1-12-5-7-2v-4l12-25 10-19 4-10 8-14 6-10 6-12z" fill="#F7BA04"/>
<path transform="translate(332,232)" d="m0 0 5 1 7 10-3 3-30 14-20 9h-2v52l-7-2-9-3v-57l18-8z" fill="#F5F7F2"/>
<path transform="translate(714,207)" d="m0 0v3l-10 14-4 7-2 1-2 4-6 9-5 5-9 13-26 36-10 14h-3l-4-3v-2l-4-2-10-9 6-7 8-7 8-8 8-7 10-10 8-7 7-7h2v-2h2l2-4 10-10 5-3 14-14z" fill="#F7BA04"/>
<path transform="translate(460,128)" d="m0 0 2 3 7 25 10 35 4 13 3 7 6 25 4 12 4 16-6 2-12 2h-6l-3-20-2-21v-7h-2l-3-32-3-29-2-18-1-4z" fill="#F7BA04"/>
<path transform="translate(465,416)" d="m0 0h5l1 19v21l-5 96-3 64-2 33-1 1h-6v-18l4-83 3-59 3-60z" fill="#F5F7F2"/>
<path transform="translate(513,579)" d="m0 0h9l9 3 8 7 4 8 1 4v42l-2 2-9-1-1-42-3-5v-2l-4-2-3-1h-9l-7 4-4 8-1 40-10 1v-47l5-10 8-6z" fill="#F2F5F0"/>
<path transform="translate(694,458)" d="m0 0 9 1 41 11 6 1 12 3 9 3 41 11v1l-51-2-41-3-30-2 1-7z" fill="#F7BB04"/>
<path transform="translate(273,388)" d="m0 0 16 5v29l53-1v15l-6 1-32-3-26-2-31-4-15-2-1-2 42-1z" fill="#F7BA04"/>
<path transform="translate(450,349)" d="m0 0h19l1 11v9h35v-20h24l1 19 24 1v6h-104z" fill="#5C6064"/>
<path transform="translate(369,711)" d="m0 0 3 3 15 33 1 2h5l2-10 3-24 2-4 16 26v2h2l2-6 8-13 5-9 2 3 5 35 3 2h-15l2-1-2-18-1-2-10 18-2 4-4-5-10-17-2 14v5l1 2h-25l1-4-2-7h-14l-2 10 2 1h-11l4-3z" fill="#F0F2ED"/>
<path transform="translate(582,513)" d="m0 0h88l-1 5-5 10h-81l-1-1z" fill="#EFF1EC"/>
<path transform="translate(300,301)" d="m0 0 11 2 50 12 24 5 2 1-1 4-10 12-3 5-2 3-5-1-13-8-14-9-31-20v-2l-5-1z" fill="#F8BB04"/>
<path transform="translate(380,565)" d="m0 0 3 1 7 8 6 8-4 5-8 7-10 9-11 9-13 12-11 9-10 9-5 4-2-1 12-17 39-54z" fill="#F5B904"/>
<path transform="translate(364,513)" d="m0 0h88l-1 15h-80l-5-9z" fill="#F0F2ED"/>
<path transform="translate(450,380)" d="m0 0h63l2 3h-4v2l5 1v6h-5v12l-1 1h-12l-1-1-1-11h-13l-1 12h-13l-1-12h-10v2l3-1v11h-5-3l-3-5z" fill="#B6BBBB"/>
<path transform="translate(653,565)" d="m0 0h3l12 17 12 16 12 17 13 18 8 11-1 2-11-10-11-9-14-13-11-9-15-14-8-7-2-2 1-6 9-9z" fill="#F6BA04"/>
<path transform="translate(726,303)" d="m0 0 3 1-11 8-11 7-27 18-14 8-5-5-6-9-7-8 1-3 17-4 19-3 18-4 18-5z" fill="#F8BB04"/>
<path transform="translate(635,584)" d="m0 0 3 4 18 40 8 18v2h-8l-6-2-4-7-12-15-13-17-4-5 2-4 11-10z" fill="#F7BA04"/>
<path transform="translate(376,536)" d="m0 0h75l-1 15-19 1h-44l-5-5-6-9z" fill="#F3F6F1"/>
<path transform="translate(583,536)" d="m0 0h75l-2 6-7 9-5 1-61-1z" fill="#F5F7F2"/>
<path transform="translate(364,542)" d="m0 0 5 5 8 12-2 4-17 11-54 36v-3l6-7h2l2-4 7-7 7-8 15-16 9-10z" fill="#F6BA04"/>
<path transform="translate(669,542)" d="m0 0 4 2 13 14 7 8 11 12 9 10 7 8 9 10-1 2-29-19-27-18-14-10 1-4 9-14z" fill="#F5B904"/>
<path transform="translate(398,586)" d="m0 0 4 1 15 12-1 5-10 12-20 26-2 4-7 2h-6l5-13 18-40z" fill="#F7BB04"/>
<path transform="translate(350,512)" d="m0 0 3 3 6 14 3 9-10 4-36 12-11 4h-3v-2l8-7 16-15 12-11 10-9z" fill="#F7BA04"/>
<path transform="translate(308,260)" d="m0 0 5 2 22 15 29 20 10 7 7 5v2l-22-3-13-1-8-7-9-10-9-11-6-7v-2h-2z" fill="#F5B904"/>
<path transform="translate(682,513)" d="m0 0 4 2 15 14 8 7 12 11 8 7 2 3-11-3-49-15 3-9z" fill="#F7BB04"/>
<path transform="translate(725,260)" d="m0 0 3 1-6 7-4 6-12 13-11 12-7 8-25 3h-8l4-4 17-12 15-10 23-16 9-6h2z" fill="#F6BA04"/>
<path transform="translate(584,560)" d="m0 0h58l-2 4h-2v2l-8 7-2 2h-43z" fill="#B8BDBD"/>
<path transform="translate(705,713)" d="m0 0 8 1 5 5 3 9-1 12-4 6-3 3-6 1-7-3-4-6-1-3v-13l4-8z" fill="#1D2122"/>
<path transform="translate(538,713)" d="m0 0 7 1 5 5 3 9-1 12-4 6-3 3-6 1-7-3-4-6-1-3v-13l4-8 4-3z" fill="#1D2122"/>
<path transform="translate(663,765)" d="m0 0 7 1 5 5 3 9-1 12-4 6-3 3-6 1-7-3-4-6-1-3v-12l3-8 5-4z" fill="#1D2122"/>
<path transform="translate(487,818)" d="m0 0 7 1 5 5 3 10-1 10-3 6-4 4-6 1-7-3-4-6-1-3v-13l4-8 4-3z" fill="#1D2122"/>
<path transform="translate(393,560)" d="m0 0h57l-1 15h-42l-8-7z" fill="#F5F7F2"/>
<path transform="translate(513,380)" d="m0 0h42v13l5 1v11h-6l-1-12h-13l-1 12h-12v-12h-12v-7l-4-1v-2l-4-2z" fill="#5C6064"/>
<path transform="translate(569,711)" d="m0 0 7 6 11 11 8 7 1 1v-22l-1-2h13l-2 1v39l-7-6-17-16-4-4v23l2 2h-14l2-2z" fill="#EEF0EC"/>
<path transform="translate(398,764)" d="m0 0h23l6 3 2 4v7l-4 6-3 1 6 8 5 7 5 2v1h-10l-7-3-8-15-2-2 6-2 2-3v-7l-4-4-6-1 1 36 3 1h-15l2-1v-36z" fill="#F3F5F0"/>
<path transform="translate(483,816)" d="m0 0h11l8 3 6 5 3 9v7l-3 8-5 5-5 3-6 1h-8l-10-4-5-6-2-5v-12l3-6 7-6zm4 2-6 3-4 6-1 3v13l4 8 4 3 5 1 6-2 5-6 2-7-1-11-4-8-6-3z" fill="#EDEFEB"/>
<path transform="translate(660,763)" d="m0 0h10l10 4 5 6 2 7v8l-5 10-8 5-5 1h-8l-9-3-6-5-3-7v-12l4-7 6-5zm3 2-6 3-4 6-1 4v12l4 8 4 3 5 1 6-2 5-6 2-10-1-9-5-8-5-2z" fill="#EEF0EC"/>
<path transform="translate(535,711)" d="m0 0h11l10 5 4 5 2 7v8l-5 10-8 5-5 1h-8l-9-3-6-5-3-6v-13l4-7 6-5zm3 2-6 3-4 6-1 3v13l4 8 4 3 6 1 5-2 5-6 2-10-1-9-5-8-5-2z" fill="#EDF0EB"/>
<path transform="translate(703,711)" d="m0 0h10l10 4 5 6 2 7v8l-3 7-5 5-5 3-5 1h-8l-9-3-6-5-3-7v-12l4-7 6-5zm2 2-6 4-4 8v13l4 8 4 3 6 1 5-2 5-6 2-10-1-9-4-7-6-3z" fill="#EEF0EC"/>
<path transform="translate(760,328)" d="m0 0h2v46l-10 2h-6v-39l12-7z" fill="#F7F9F4"/>
<path transform="translate(273,328)" d="m0 0 11 6 5 4v37l-14-1-2-1z" fill="#F7F9F4"/>
<path transform="translate(450,349)" d="m0 0h19v21h35v4l-27 1h-27z" fill="#B6BBBB"/>
<path transform="translate(582,513)" d="m0 0h88l-1 5-1 2h-86z" fill="#06B5E3"/>
<path transform="translate(364,513)" d="m0 0h88l-1 7h-84l-3-5z" fill="#06B5E4"/>
<path transform="translate(758,434)" d="m0 0h4v40l-7-1-9-3v-33z" fill="#F7F9F4"/>
<path transform="translate(378,211)" d="m0 0 3 1 6 12-4 3-24 11h-5l-10-10 3-3 26-12z" fill="#F3F6F1"/>
<path transform="translate(655,211)" d="m0 0 16 7 20 9-6 7-5 5-5-1-26-12-1-2 6-12z" fill="#F4F6F1"/>
<path transform="translate(251,428)" d="m0 0 22 2 5 1 26 2 36 3 2 1-1 11-9-1-36-7-10-2-15-4-20-4z" fill="#A07B0B"/>
<path transform="translate(498,763)" d="m0 0h11l8 2 2 1-1 8-4-5-7-3-8 1-5 4-2 5v15l3 6 4 3 5 1 7-3 1-1v-11l-1-2h12l-1 2-1 11-5 4-4 2-13 1-9-3-7-8-1-3v-13l4-8 8-5z" fill="#EEF0EC"/>
<path transform="translate(273,435)" d="m0 0 11 1 5 2v32l-16 4z" fill="#F7F9F4"/>
<path transform="translate(369,711)" d="m0 0 3 3 15 33 1 2 5 1v1h-18l1-4-2-7h-14l-2 10 2 1h-11l4-3z" fill="#F0F3EE"/>
<path transform="translate(444,816)" d="m0 0 3 3 15 33 1 2 3 2h-17l2-4-2-7h-14l-2 10 2 1h-11l4-3 14-32z" fill="#F0F2EE"/>
<path transform="translate(630,711)" d="m0 0 3 3 15 33 1 2 3 2h-17l2-4-2-7-13 1-3 9 2 1h-11l4-4 12-26z" fill="#F0F2EE"/>
<path transform="translate(588,763)" d="m0 0 3 3 15 33 1 2 3 2h-16l1-4-2-7h-14l-2 10 2 1h-11l4-3 11-25z" fill="#F1F3EE"/>
<path transform="translate(447,712)" d="m0 0h23l5 3 3 4v8l-5 6-2 1h-9v-3l5-1 1-4v-7l-4-4-6-1 1 36 2 1h-14l2-1v-36z" fill="#F3F6F1"/>
<path transform="translate(515,455)" d="m0 0 6 1 4 4 2 7v19h-19l-1-22 4-6z" fill="#1D2122"/>
<path transform="translate(390,205)" d="m0 0h36l4 11 1 4h-33l-2-5h-2l-5-7z" fill="#F7F9F4"/>
<path transform="translate(761,386)" d="m0 0h1v36h-16l-1-10 1-20 3-2 10-3z" fill="#F6F8F3"/>
<path transform="translate(329,476)" d="m0 0h15l1 7-24 2-48 3-23 1v-2l13-3 15-2 21-2 18-3z" fill="#9F7A0C"/>
<path transform="translate(438,764)" d="m0 0h12l-1 2v24l2 7 4 3h9l4-3 1-3 1-29-2-1h8l-1 2-1 28-3 5-5 4-4 1h-8l-9-3-4-5-1-3-1-27z" fill="#F0F3EE"/>
<path transform="translate(353,764)" d="m0 0h12l-1 2v24l2 7 4 3h9l4-3 1-3 1-29-2-1h8l-1 2-1 28-3 5-5 4-4 1h-8l-7-2-5-5-2-4-1-27z" fill="#F1F3EF"/>
<path transform="translate(529,764)" d="m0 0h12l-1 2v24l2 7 4 3h9l4-3 1-3 1-29-2-1h8l-1 2-1 28-3 5-5 4-4 1h-8l-8-3-5-5-1-3-1-27z" fill="#F1F3EF"/>
<path transform="translate(609,205)" d="m0 0h34l2 1-2 4-8 10h-31l4-13z" fill="#F6F8F3"/>
<path transform="translate(343,491)" d="m0 0 3 2 4 11v4l-20 3-22 3h-8l3-3 5-1v-2l16-8z" fill="#F4B804"/>
<path transform="translate(273,388)" d="m0 0 16 5v28l-1 1h-15z" fill="#F7F9F4"/>
<path transform="translate(692,473)" d="m0 0 23 3 37 4 24 5v2h-15l-41-3-30-2 1-7z" fill="#A07B0C"/>
<path transform="translate(539,816)" d="m0 0h3l1 6-5-2-11-1v17l10-2 3-2v10l-3-3-10-1 1 15h8l6-3 3-3-1 9h-29l3-3v-35l-2-1z" fill="#F4F6F1"/>
<path transform="translate(508,711)" d="m0 0h2v6l-4-2-11-1v17l10-2 3-3v12l-3-4-10-1v16l12-2 6-5-1 9h-28l2-3v-35l-2-1z" fill="#F4F6F2"/>
<path transform="translate(326,711)" d="m0 0h11l8 3v8l-4-5-7-3-8 1-5 5-2 4v14l4 8 3 2 7 1 8-3 3-5 2-4 1 1v7l-6 5-7 2-12-1-8-5-4-5-1-3v-14l4-6 6-5z" fill="#F1F3EF"/>
<path transform="translate(762,431)" d="m0 0h8l-4 2-54 12-18 1v-9l28-3z" fill="#A27C0A"/>
<path transform="translate(603,764)" d="m0 0h15l1 6 5 10h2l7-12-1-4h10l-6 7-8 13v17l2 2h-16l3-2v-17l-11-18z" fill="#EEF0EC"/>
<path transform="translate(583,536)" d="m0 0h75l-2 6h-73z" fill="#06B5E4"/>
<path transform="translate(376,536)" d="m0 0h75v5l-1 1-71 1-3-5z" fill="#06B5E4"/>
<path transform="translate(690,492)" d="m0 0 5 1 23 12 15 8v1l-10-1-35-5-3-1 1-7z" fill="#F4B904"/>
<path transform="translate(647,711)" d="m0 0h36v9l-5-5-9-1 1 35 2 2h-15l3-3 1-34-10 1-4 3z" fill="#F3F5F0"/>
<path transform="translate(308,306)" d="m0 0 9 3 16 8 19 9 17 9 6 3-2 4-2 3-5-1-13-8-14-9-31-20z" fill="#9E7A0D"/>
<path transform="translate(741,337)" d="m0 0 4 1-16 10-27 18-20 13-2-1-4-10 2-1v2l8-2 15-9 16-8 6-4 17-8z" fill="#9D790E"/>
<path transform="translate(311,264)" d="m0 0 8 6 9 9 8 6 5 5 15 14 2 1v2h-12l-8-7-9-10-9-11-6-7v-2h-2z" fill="#9C790F"/>
<path transform="translate(269,385)" d="m0 0 11 1 8 1 7 3 38 10 12 2v6l-1 2-10-2-41-14-14-3-5-2v-2l-5-1z" fill="#9D7A0E"/>
<path transform="translate(565,205)" d="m0 0h28l-7 15h-22v-11z" fill="#F7F9F4"/>
<path transform="translate(522,171)" d="m0 0 2 4 3 32 3 45v13h-5l-2-33-2-57z" fill="#9F7B0D"/>
<path transform="translate(440,205)" d="m0 0h28l1 6v9h-21l-8-13z" fill="#F7F9F4"/>
<path transform="translate(483,816)" d="m0 0 4 1-7 6-3 7v13l4 8 8 4v1h-9l-8-5-4-6-1-3v-12l3-6 7-6z" fill="#F2F4EF"/>
<path transform="translate(660,763)" d="m0 0 3 1-7 6-3 8v12l4 8 8 4v1h-9l-7-4-4-5-2-5v-12l4-7 6-5z" fill="#F2F4EF"/>
<path transform="translate(703,711)" d="m0 0 3 1-8 8-2 5v13l4 8 9 4v1h-10l-8-5-4-6-1-3v-12l4-7 6-5z" fill="#F2F4EF"/>
<path transform="translate(535,711)" d="m0 0 3 1-7 6-3 7v13l4 8 9 4v1h-10l-8-5-5-8v-13l4-7 6-5z" fill="#F2F4F0"/>
<path transform="translate(587,817)" d="m0 0h14l-2 2v36l3 1h-16l3-3v-35z" fill="#F5F7F2"/>
<path transform="translate(584,560)" d="m0 0h58l-2 4h-2v2h-53z" fill="#06B5E3"/>
<path transform="translate(565,817)" d="m0 0h14l-2 2v35l2 2h-14l2-4v-34z" fill="#F5F7F2"/>
<path transform="translate(484,205)" d="m0 0h24v11l-1 4h-19l-3-9z" fill="#F7F9F4"/>
<path transform="translate(393,560)" d="m0 0h57v5l-1 1h-52z" fill="#06B5E4"/>
<path transform="translate(293,338)" d="m0 0 5 1 16 8 8 5 12 6 11 6 9 5v2h2l-2 5-5-1-22-14-34-22z" fill="#9E7A0D"/>
<path transform="translate(608,583)" d="m0 0h7v3l-15 10-11 5h-3l-1-5 1-12z" fill="#06B5E4"/>
<path transform="translate(418,583)" d="m0 0 31 1-1 18-6-2-11-6-13-9z" fill="#07B5E3"/>
<path transform="translate(752,387)" d="m0 0h4v2l-16 5-42 15-5 2h-3l-1-7 10-3 31-8 16-5z" fill="#A17C0C"/>
<path transform="translate(527,205)" d="m0 0h22l-3 12-1 3h-18l-1-13z" fill="#F7F9F4"/>
<path transform="translate(718,269)" d="m0 0 2 1-2 4-12 13-11 12-7 8-12 1 4-5 10-8h2l2-4 5-4h2l1-3 5-4 5-5z" fill="#9E7A0D"/>
<path transform="translate(707,316)" d="m0 0 3 1-30 20-14 8-5-5v-2l11-5 18-8 12-6z" fill="#9D790E"/>
<path transform="translate(450,349)" d="m0 0h19v3h-12l1 22-1 1h-7z" fill="#F2F4F0"/>
<path transform="translate(450,380)" d="m0 0h7l1 15 3-1v11h-5-3l-3-5z" fill="#F4F6F1"/>
<path transform="translate(481,498)" d="m0 0 2 1v18h-10v-18z" fill="#282C2E"/>
<path transform="translate(559,764)" d="m0 0h8l-1 2-1 28-3 5-5 4h-8l4-2 6-4 1-3 1-29z" fill="#E9ECE8"/>
<path transform="translate(468,764)" d="m0 0h8l-1 2-1 28-3 5-5 4h-8l4-2 6-4 1-3 1-29z" fill="#EAECE8"/>
<path transform="translate(383,764)" d="m0 0h8l-1 2-1 28-3 5-5 4h-8l4-2 6-4 1-3 1-29z" fill="#E9ECE8"/>
<path transform="translate(512,519)" d="m0 0h10v17h-9z" fill="#1A1E1F"/>
<path transform="translate(427,590)" d="m0 0h21v12l-6-2-11-6z" fill="#F2F4F0"/>
<path transform="translate(586,590)" d="m0 0h21l-5 5-13 6h-3l-1-5z" fill="#F1F3EF"/>
<path transform="translate(459,715)" d="m0 0h7l3 4v7l-2 4-2 1h-6z" fill="#1B1F20"/>
<path transform="translate(410,767)" d="m0 0h7l3 4v7l-4 5h-6z" fill="#1B1F20"/>
<path transform="translate(673,534)" d="m0 0 21 8 20 8 2 2-10-2-29-9-6-2z" fill="#9A7812"/>
<path transform="translate(512,570)" d="m0 0h11v8l-1 1h-10z" fill="#1A1E1F"/>
<path transform="translate(360,534)" d="m0 0 2 4-10 4-21 7-3-1 17-8 13-5z" fill="#9D7A0F"/>
<path transform="translate(516,462)" d="m0 0 3 1 1 3v16h-5v-19z" fill="#F2F5F0"/>
<path transform="translate(513,557)" d="m0 0h12v7h-12z" fill="#1A1E1F"/>
<path transform="translate(586,776)" d="m0 0 2 3 4 11h-11l1-5z" fill="#2B2F31"/>
<path transform="translate(628,724)" d="m0 0 2 3 4 11h-11l3-10z" fill="#2A2E30"/>
<path transform="translate(367,724)" d="m0 0 2 3 3 7v4h-10l3-10z" fill="#2A2E30"/>
<path transform="translate(442,830)" d="m0 0 3 4 2 5v4h-10l3-10z" fill="#292D2E"/>
<path transform="translate(511,436)" d="m0 0h11v7h-11z" fill="#1A1E1F"/>
<path transform="translate(457,393)" d="m0 0 1 2 3-1v11h-6l-1-4v-6z" fill="#B2B7B7"/>
<path transform="translate(345,737)" d="m0 0 2 1v7l-6 5-7 2h-6v-1h5v-2l8-3 3-5z" fill="#E0E3E0"/>
<path transform="translate(509,764)" d="m0 0h6l4 2-1 8-4-5-7-3z" fill="#E6E9E5"/>
<path transform="translate(335,711)" d="m0 0 9 2 1 1v8l-4-5-7-3z" fill="#EAEDE9"/>
<path transform="translate(507,726)" d="m0 0h1v12l-3-4-10-1v-1l7-1z" fill="#CDD1CF"/>
<path transform="translate(539,832)" d="m0 0h1v10l-3-3-10-1v-1l7-1z" fill="#CED2D0"/>
</svg>
